<?xml version="1.0" standalone="no"?>
<!DOCTYPE svg PUBLIC "-//W3C//DTD SVG 20010904//EN"
 "http://www.w3.org/TR/2001/REC-SVG-20010904/DTD/svg10.dtd">
<svg version="1.0" xmlns="http://www.w3.org/2000/svg"
 width="1024.000000pt" height="1024.000000pt" viewBox="0 0 1024.000000 1024.000000"
 preserveAspectRatio="xMidYMid meet">

<g transform="translate(0.000000,1024.000000) scale(0.100000,-0.100000)"
fill="#000000" stroke="none">
<path d="M3675 8023 c-198 -25 -349 -68 -490 -140 -306 -155 -538 -428 -649
-765 -73 -220 -70 -154 -74 -1518 -3 -1240 0 -1404 33 -1566 96 -466 436 -847
884 -988 167 -53 217 -59 553 -65 299 -6 318 -7 344 -27 15 -11 37 -33 48 -48
20 -26 21 -43 26 -404 3 -207 9 -385 14 -394 12 -27 70 -58 105 -58 57 0 23
-23 998 659 183 127 351 239 375 248 36 14 104 18 418 24 325 6 387 9 465 27
260 59 469 174 656 361 195 195 305 401 366 682 17 79 18 171 18 1454 l0 1370
-23 105 c-119 532 -495 905 -1032 1023 -94 21 -113 21 -1550 23 -800 1 -1468
0 -1485 -3z m-715 -307 c0 -2 -8 -10 -17 -17 -16 -13 -17 -12 -4 4 13 16 21
21 21 13z m4345 -16 c10 -11 16 -20 13 -20 -3 0 -13 9 -23 20 -10 11 -16 20
-13 20 3 0 13 -9 23 -20z m155 -160 c6 -11 8 -20 6 -20 -3 0 -10 9 -16 20 -6
11 -8 20 -6 20 3 0 10 -9 16 -20z m-1960 -490 c133 -13 221 -51 303 -133 53
-53 78 -97 148 -256 31 -71 96 -136 167 -169 54 -25 69 -27 252 -32 170 -5
201 -9 240 -27 104 -48 179 -132 210 -233 20 -64 20 -88 18 -950 l-3 -885 -32
-66 c-40 -81 -102 -140 -191 -182 l-67 -32 -1455 0 -1455 0 -62 29 c-73 34
-153 113 -186 183 l-22 48 0 925 0 925 28 54 c42 80 107 144 180 177 58 27 73
29 232 35 193 7 232 18 308 89 42 38 66 79 142 243 61 132 205 238 345 256 95
12 778 13 900 1z m-1360 -454 c0 -2 -8 -10 -17 -17 -16 -13 -17 -12 -4 4 13
16 21 21 21 13z m-803 -588 c-3 -7 -5 -2 -5 12 0 14 2 19 5 13 2 -7 2 -19 0
-25z m0 -80 c-3 -8 -6 -5 -6 6 -1 11 2 17 5 13 3 -3 4 -12 1 -19z m0 -150 c-2
-13 -4 -3 -4 22 0 25 2 35 4 23 2 -13 2 -33 0 -45z m0 -90 c-3 -8 -6 -5 -6 6
-1 11 2 17 5 13 3 -3 4 -12 1 -19z m0 -80 c-3 -7 -5 -2 -5 12 0 14 2 19 5 13
2 -7 2 -19 0 -25z m0 -80 c-3 -8 -6 -5 -6 6 -1 11 2 17 5 13 3 -3 4 -12 1 -19z
m0 -160 c-3 -8 -6 -5 -6 6 -1 11 2 17 5 13 3 -3 4 -12 1 -19z m0 -90 c-3 -7
-5 -2 -5 12 0 14 2 19 5 13 2 -7 2 -19 0 -25z m0 -70 c-3 -8 -6 -5 -6 6 -1 11
2 17 5 13 3 -3 4 -12 1 -19z m0 -75 c-3 -10 -5 -2 -5 17 0 19 2 27 5 18 2 -10
2 -26 0 -35z m0 -45 c-3 -8 -6 -5 -6 6 -1 11 2 17 5 13 3 -3 4 -12 1 -19z m0
-40 c-3 -8 -6 -5 -6 6 -1 11 2 17 5 13 3 -3 4 -12 1 -19z m0 -160 c-3 -8 -6
-5 -6 6 -1 11 2 17 5 13 3 -3 4 -12 1 -19z m0 -80 c-3 -7 -5 -2 -5 12 0 14 2
19 5 13 2 -7 2 -19 0 -25z m0 -80 c-3 -7 -5 -2 -5 12 0 14 2 19 5 13 2 -7 2
-19 0 -25z m0 -80 c-3 -7 -5 -2 -5 12 0 14 2 19 5 13 2 -7 2 -19 0 -25z m4093
-1212 c0 -2 -8 -10 -17 -17 -16 -13 -17 -12 -4 4 13 16 21 21 21 13z m-200
-180 c0 -2 -8 -10 -17 -17 -16 -13 -17 -12 -4 4 13 16 21 21 21 13z m-2840
-1136 c12 -23 12 -24 -3 -11 -10 7 -17 20 -17 29 0 18 3 16 20 -18z"/>
<path d="M4950 6390 c-353 -45 -654 -254 -818 -568 -153 -293 -158 -652 -12
-959 134 -283 389 -490 707 -574 119 -32 346 -37 478 -11 394 78 707 367 819
756 88 302 37 633 -135 887 -150 223 -424 404 -686 455 -94 18 -270 25 -353
14z m207 -416 c-3 -3 -12 -4 -19 -1 -8 3 -5 6 6 6 11 1 17 -2 13 -5z m50 -29
c256 -48 456 -254 501 -518 28 -164 -4 -310 -100 -453 -83 -124 -220 -219
-368 -255 -76 -19 -240 -16 -319 5 -218 58 -389 232 -445 452 -20 78 -20 220
-1 303 23 94 90 215 162 292 50 52 84 77 156 113 144 73 260 90 414 61z m-677
-1511 c0 -2 -9 0 -20 6 -11 6 -20 13 -20 16 0 2 9 0 20 -6 11 -6 20 -13 20
-16z"/>
</g>
</svg>
